<?xml version="1.0" encoding="UTF-8" standalone="no"?>
<!-- Generator: Adobe Illustrator 21.1.0, SVG Export Plug-In . SVG Version: 6.00 Build 0)  -->

<svg
   version="1.1"
   id="Layer_1"
   x="0px"
   y="0px"
   viewBox="0 0 64 64"
   style="enable-background:new 0 0 64 64;"
   xml:space="preserve"
   sodipodi:docname="cards_icon.svg"
   inkscape:version="1.1.2 (0a00cf5339, 2022-02-04, custom)"
   xmlns:inkscape="http://www.inkscape.org/namespaces/inkscape"
   xmlns:sodipodi="http://sodipodi.sourceforge.net/DTD/sodipodi-0.dtd"
   xmlns="http://www.w3.org/2000/svg"
   xmlns:svg="http://www.w3.org/2000/svg"><defs
   id="defs890" /><sodipodi:namedview
   id="namedview888"
   pagecolor="#505050"
   bordercolor="#ffffff"
   borderopacity="1"
   inkscape:pageshadow="0"
   inkscape:pageopacity="0"
   inkscape:pagecheckerboard="1"
   showgrid="false"
   inkscape:zoom="21.796875"
   inkscape:cx="32"
   inkscape:cy="34.70681"
   inkscape:window-width="3072"
   inkscape:window-height="1659"
   inkscape:window-x="0"
   inkscape:window-y="0"
   inkscape:window-maximized="1"
   inkscape:current-layer="Playing-Cards" />
<style
   type="text/css"
   id="style874">
	.st0{fill:#FFFFFF;}
	.st1{fill:#ACBDC5;}
	.st2{fill:#FF6C58;}
	.st3{fill-rule:evenodd;clip-rule:evenodd;fill:#314A52;}
	.st4{fill:#D7385E;}
</style>
<g
   id="Playing-Cards">
	<path
   class="st0"
   d="M6,12c0-3.3,2.7-6,6-6h28c3.3,0,6,2.7,6,6v44c0,3.3-2.7,6-6,6H12c-3.3,0-6-2.7-6-6V12z"
   id="path876" />
	<path
   class="st1"
   d="M16.7,6c1-4,5-6.6,9.1-5.9l27.6,4.7c4.4,0.7,7.3,4.9,6.5,9.2l-7.4,43.3c-0.7,4.3-4.9,7.3-9.2,6.5L36,62.6V64   H12c-4.4,0-8-3.6-8-8V12c0-4.4,3.6-8,8-8h4v4h-4c-2.2,0-4,1.8-4,4v32c0,2.2,4.5,4,10,4c14.4,0,26-10.7,26-24v32c0,3.3-2.7,6-6,6h2   c3.3,0,6-2.7,6-6V12c0-3.3-2.7-6-6-6H16.7z"
   id="path878" />
	
	<path
   class="st3"
   d="M40,8H16V4h24c4.4,0,8,3.6,8,8v44c0,4.4-3.6,8-8,8h-4v-4h4c2.2,0,4-1.8,4-4V12C44,9.8,42.2,8,40,8z"
   id="path882"
   style="fill:#314a52;fill-opacity:1" />
	
<path
   style="fill:#000000;fill-opacity:0;stroke:#314a52;stroke-width:1.07557;stroke-linecap:round;stroke-linejoin:round;stroke-miterlimit:4;stroke-dasharray:none;stroke-opacity:1;paint-order:normal"
   d="M 10.923986,16.762187 H 38.837993 Z"
   id="path2002" /><path
   style="fill:#000000;fill-opacity:0;stroke:#314a52;stroke-width:1.07557;stroke-linecap:round;stroke-linejoin:round;stroke-miterlimit:4;stroke-dasharray:none;stroke-opacity:1;paint-order:normal"
   d="M 10.923986,22.762187 H 38.837993 Z"
   id="path2002-3" /><path
   style="fill:#000000;fill-opacity:0;stroke:#314a52;stroke-width:1.07557;stroke-linecap:round;stroke-linejoin:round;stroke-miterlimit:4;stroke-dasharray:none;stroke-opacity:1;paint-order:normal"
   d="M 10.923986,28.762187 H 38.837993 Z"
   id="path2002-3-6" /><path
   style="fill:#000000;fill-opacity:0;stroke:#314a52;stroke-width:0.92984;stroke-linecap:round;stroke-linejoin:round;stroke-miterlimit:4;stroke-dasharray:none;stroke-opacity:1;paint-order:normal"
   d="M 16.555018,12.458521 V 33.32069 Z"
   id="path2002-3-5" /></g>
</svg>
